<svg xmlns="http://www.w3.org/2000/svg" width="80" height="80"><path d="M10.039 62.025c-.416.802-.907 1.552-.907 2.432l.004.368c0 1.9 1.487 3.049 3.197 3.049h55.25c1.71 0 3.183-1.424 3.183-3.324l-.018-.37c0-.88-.433-1.645-.907-2.432L42.479 12.664c-1.209-1.343-3.169-1.343-4.378 0L10.039 62.025z" fill="#ffd42a" stroke="#000" stroke-width="3.111"/><path d="M44.961 57.122a4.36 4.36 0 1 1-8.72 0 4.36 4.36 0 0 1 8.72 0zm-4.388-30.289c1.713 0 4.371 1.365 4.371 3.06l-1.279 17.616c0 1.695-1.379 3.06-3.091 3.06s-3.091-1.365-3.091-3.06l-1.492-17.616c0-1.695 2.871-3.06 4.584-3.06z"/><defs /></svg>
